<?xml version="1.0" standalone="no"?>
<!DOCTYPE svg PUBLIC "-//W3C//DTD SVG 20010904//EN"
 "http://www.w3.org/TR/2001/REC-SVG-20010904/DTD/svg10.dtd">
<svg version="1.0" xmlns="http://www.w3.org/2000/svg"
 width="700.000000pt" height="700.000000pt" viewBox="0 0 700.000000 700.000000"
 preserveAspectRatio="xMidYMid meet">
<metadata>
Created by potrace 1.11, written by Peter Selinger 2001-2013
</metadata>
<g transform="translate(0.000000,700.000000) scale(0.100000,-0.100000)"
fill="#000000" stroke="none">
<path d="M1960 5315 l0 -275 681 -2 681 -3 -72 -95 c-273 -358 -793 -834
-1217 -1115 l-73 -48 0 -328 0 -329 681 0 680 0 -31 -44 c-256 -356 -796 -858
-1252 -1165 l-78 -52 0 -324 0 -325 88 56 c282 182 582 407 837 630 218 190
584 566 673 692 l23 32 342 -334 c386 -376 513 -494 985 -915 l82 -73 0 330 0
330 -227 203 c-341 304 -595 541 -818 761 l-200 197 623 1 622 0 0 378 0 378
-207 184 c-395 352 -1033 952 -1033 971 0 5 267 9 620 9 l620 0 0 275 0 275
-1515 0 -1515 0 0 -275z m2265 -1406 c61 -57 141 -132 179 -167 37 -35 66 -65
64 -68 -3 -2 -396 -3 -873 -2 l-868 3 134 115 c173 148 509 483 628 628 l93
112 267 -259 c146 -142 316 -305 376 -362z"/>
</g>
</svg>
