<?xml version="1.0" encoding="UTF-8" standalone="no"?>
<!-- Created with Inkscape (http://www.inkscape.org/) -->

<svg
   xmlns:dc="http://purl.org/dc/elements/1.1/"
   xmlns:cc="http://creativecommons.org/ns#"
   xmlns:rdf="http://www.w3.org/1999/02/22-rdf-syntax-ns#"
   xmlns:svg="http://www.w3.org/2000/svg"
   xmlns="http://www.w3.org/2000/svg"
   xmlns:xlink="http://www.w3.org/1999/xlink"
   xmlns:sodipodi="http://sodipodi.sourceforge.net/DTD/sodipodi-0.dtd"
   xmlns:inkscape="http://www.inkscape.org/namespaces/inkscape"
   width="23.944452mm"
   height="10.599193mm"
   viewBox="0 0 23.944452 10.599193"
   version="1.1"
   id="svg8"
   inkscape:version="0.92.3 (2405546, 2018-03-11)"
   sodipodi:docname="tomczykk-branding.svg">
  <defs
     id="defs2">
    <linearGradient
       inkscape:collect="always"
       id="linearGradient4757">
      <stop
         style="stop-color:#0f2027;stop-opacity:1"
         offset="0"
         id="stop4753" />
      <stop
         style="stop-color:#2c5364;stop-opacity:1"
         offset="1"
         id="stop4755" />
    </linearGradient>
    <inkscape:perspective
       sodipodi:type="inkscape:persp3d"
       inkscape:vp_x="-53.042505 : 89.235507 : 1"
       inkscape:vp_y="0 : 1000 : 0"
       inkscape:vp_z="156.95749 : 89.235507 : 1"
       inkscape:persp3d-origin="51.957501 : 39.735513 : 1"
       id="perspective5041" />
    <linearGradient
       inkscape:collect="always"
       xlink:href="#linearGradient4757"
       id="linearGradient4759"
       x1="106.22184"
       y1="20.769344"
       x2="106.22184"
       y2="31.539968"
       gradientUnits="userSpaceOnUse"
       gradientTransform="translate(-2.1272059,-1.2763235)" />
  </defs>
  <sodipodi:namedview
     id="base"
     pagecolor="#ffffff"
     bordercolor="#666666"
     borderopacity="1.0"
     inkscape:pageopacity="0.0"
     inkscape:pageshadow="2"
     inkscape:zoom="4.9752275"
     inkscape:cx="40.500767"
     inkscape:cy="35.394001"
     inkscape:document-units="mm"
     inkscape:current-layer="layer1"
     showgrid="false"
     inkscape:window-width="1366"
     inkscape:window-height="705"
     inkscape:window-x="0"
     inkscape:window-y="30"
     inkscape:window-maximized="1"
     showguides="true"
     inkscape:guide-bbox="true"
     units="mm"
     fit-margin-top="0"
     fit-margin-left="0"
     fit-margin-right="0"
     fit-margin-bottom="0">
    <sodipodi:guide
       position="10.35404,10.593644"
       orientation="1,0"
       id="guide4851"
       inkscape:locked="false" />
  </sodipodi:namedview>
  <metadata
     id="metadata5">
    <rdf:RDF>
      <cc:Work
         rdf:about="">
        <dc:format>image/svg+xml</dc:format>
        <dc:type
           rdf:resource="http://purl.org/dc/dcmitype/StillImage" />
        <dc:title></dc:title>
      </cc:Work>
    </rdf:RDF>
  </metadata>
  <g
     inkscape:label="Layer 1"
     inkscape:groupmode="layer"
     id="layer1"
     transform="translate(-100.16424,-19.855972)">
    <text
       id="text4628"
       y="27.779411"
       x="27.502031"
       style="font-style:normal;font-variant:normal;font-weight:normal;font-stretch:normal;font-size:10.58333302px;line-height:1.25;font-family:muli;-inkscape-font-specification:muli;letter-spacing:0px;word-spacing:0px;fill:#000000;fill-opacity:1;stroke:none;stroke-width:0.10729022"
       xml:space="preserve"><tspan
         style="stroke-width:0.10729022"
         y="37.577427"
         x="27.502031"
         id="tspan4626"
         sodipodi:role="line" /></text>
    <path
       inkscape:connector-curvature="0"
       style="font-style:normal;font-variant:normal;font-weight:500;font-stretch:normal;font-size:10.58333302px;line-height:1.25;font-family:ubuntu;-inkscape-font-specification:'ubuntu Medium';letter-spacing:0px;word-spacing:0px;fill:url(#linearGradient4759);fill-opacity:1;stroke:none;stroke-width:0.10729022"
       d="m 107.49816,19.861537 h -7.33392 v 1.333249 h 3.29127 c -0.1905,0.27517 -0.41642,0.5539 -0.67748,0.836119 -0.26105,0.28223 -0.536,0.55389 -0.82527,0.81494 -0.28928,0.26812 -0.58925,0.52234 -0.89969,0.76223 -0.31044,0.23989 -0.60661,0.45114 -0.88883,0.63459 v 0.25425 1.32291 0.0103 h 3.29127 c -0.1905,0.27517 -0.41642,0.55391 -0.67748,0.83613 -0.26106,0.28222 -0.536,0.55388 -0.82527,0.81493 -0.28928,0.26812 -0.58925,0.52234 -0.89969,0.76223 -0.31044,0.23989 -0.60661,0.45166 -0.88883,0.6351 v 1.57665 c 0.36689,-0.22577 0.73381,-0.47621 1.1007,-0.75137 0.37395,-0.26811 0.73001,-0.55013 1.06867,-0.84646 0.34573,-0.29633 0.66692,-0.6001 0.96325,-0.910539 0.30339,-0.30339 0.56797,-0.602841 0.79375,-0.89917 0.26106,0.268109 0.536,0.539249 0.82527,0.81442 0.28928,0.282219 0.57889,0.560959 0.86817,0.836119 0.29633,0.27517 0.5887,0.54355 0.87798,0.80461 0.28928,0.26105 0.56801,0.50769 0.83613,0.74052 v -1.59784 c -0.20462,-0.18344 -0.43382,-0.38813 -0.68782,-0.61391 -0.254,-0.22578 -0.51858,-0.46534 -0.79375,-0.71934 -0.26811,-0.24694 -0.53597,-0.49789 -0.80408,-0.75189 -0.26106,-0.254 -0.50821,-0.49735 -0.74104,-0.73019 h 3.02669 v -0.2222 -1.11105 -0.48679 c -0.20462,-0.18345 -0.43382,-0.38814 -0.68782,-0.61392 -0.254,-0.22577 -0.51858,-0.46585 -0.79375,-0.71985 -0.26811,-0.24695 -0.53597,-0.49738 -0.80408,-0.75138 -0.26106,-0.254 -0.50821,-0.49735 -0.74104,-0.73018 h 3.02669 z m -1.24024,4.635379 h -4.25504 c 0.11098,-0.0912 0.22331,-0.18144 0.33073,-0.27544 0.34573,-0.29633 0.66692,-0.59958 0.96325,-0.91002 0.30339,-0.30339 0.56797,-0.603351 0.79375,-0.899691 0.26106,0.26811 0.536,0.53977 0.82527,0.814941 0.28928,0.282219 0.57889,0.560959 0.86817,0.836119 0.15991,0.14849 0.31602,0.28971 0.47387,0.434091 z"
       id="path4698-5-3" />
    <g
       aria-label="TOMCZYK"
       style="font-style:normal;font-variant:normal;font-weight:normal;font-stretch:normal;font-size:1.70776606px;line-height:1.25;font-family:muli;-inkscape-font-specification:muli;letter-spacing:0.51226902px;word-spacing:0px;fill:#000018;fill-opacity:1;stroke:none;stroke-width:0.04269415"
       id="text4787">
      <path
         d="m 110.95223,21.085564 v -1.096386 h -0.42353 v -0.119544 h 0.9888 v 0.119544 h -0.42353 v 1.096386 z"
         style="letter-spacing:0.51226902px;fill:#000018;fill-opacity:1;stroke-width:0.04269415"
         id="path4872" />
      <path
         d="m 112.63362,21.099226 q -0.17077,0 -0.29544,-0.07514 -0.12296,-0.07514 -0.19127,-0.215178 -0.0666,-0.140037 -0.0666,-0.331307 0,-0.192978 0.0666,-0.331307 0.0666,-0.140036 0.18956,-0.215178 0.12467,-0.07514 0.29715,-0.07514 0.17078,0 0.29545,0.07514 0.12466,0.07514 0.19127,0.215178 0.0666,0.138329 0.0666,0.329599 0,0.192978 -0.0683,0.333015 -0.0666,0.140036 -0.19127,0.215178 -0.12296,0.07514 -0.29374,0.07514 z m 0,-0.119544 q 0.19298,0 0.30057,-0.12979 0.10759,-0.131498 0.10759,-0.374001 0,-0.242503 -0.10759,-0.370585 -0.10759,-0.12979 -0.30057,-0.12979 -0.19297,0 -0.30227,0.12979 -0.10759,0.12979 -0.10759,0.370585 0,0.240795 0.10759,0.372293 0.1093,0.131498 0.30227,0.131498 z"
         style="letter-spacing:0.51226902px;fill:#000018;fill-opacity:1;stroke-width:0.04269415"
         id="path4874" />
      <path
         d="m 113.95449,21.085564 v -1.21593 h 0.11613 l 0.49355,1.122003 h -0.0649 l 0.48842,-1.122003 h 0.11613 v 1.21593 h -0.12979 v -1.031491 l 0.0529,0.0068 -0.44743,1.02466 h -0.0991 l -0.45426,-1.02466 0.0564,-0.0068 0.002,1.031491 z"
         style="letter-spacing:0.51226902px;fill:#000018;fill-opacity:1;stroke-width:0.04269415"
         id="path4876" />
      <path
         d="m 116.43686,21.099226 q -0.1742,0 -0.30057,-0.07514 -0.12637,-0.07514 -0.19469,-0.215178 -0.0683,-0.140037 -0.0683,-0.333015 0,-0.192977 0.0683,-0.331306 0.0683,-0.138329 0.19469,-0.213471 0.12637,-0.07514 0.30057,-0.07514 0.12466,0 0.23055,0.03928 0.10588,0.03757 0.18273,0.11442 l -0.0529,0.107589 q -0.0871,-0.07514 -0.17249,-0.107589 -0.0854,-0.03245 -0.18615,-0.03245 -0.1998,0 -0.31081,0.129791 -0.1093,0.12979 -0.1093,0.368877 0,0.240795 0.1093,0.372293 0.1093,0.12979 0.31081,0.12979 0.10076,0 0.18615,-0.03245 0.0854,-0.03245 0.17249,-0.107589 l 0.0529,0.107589 q -0.0768,0.07685 -0.18273,0.116128 -0.10589,0.03757 -0.23055,0.03757 z"
         style="letter-spacing:0.51226902px;fill:#000018;fill-opacity:1;stroke-width:0.04269415"
         id="path4878" />
      <path
         d="M 117.51394,21.085564 V 20.98139 l 0.7463,-1.065646 -0.003,0.07173 h -0.74288 v -0.117836 h 0.85901 V 19.9721 l -0.74629,1.067354 0.003,-0.07173 h 0.75996 v 0.117836 z"
         style="letter-spacing:0.51226902px;fill:#000018;fill-opacity:1;stroke-width:0.04269415"
         id="path4880" />
      <path
         d="m 119.41412,21.085564 v -0.546485 l 0.0307,0.09905 -0.50892,-0.768495 h 0.16395 l 0.40986,0.635289 h -0.0478 l 0.40986,-0.635289 h 0.16053 l -0.50721,0.768495 0.029,-0.09905 v 0.546485 z"
         style="letter-spacing:0.51226902px;fill:#000018;fill-opacity:1;stroke-width:0.04269415"
         id="path4882" />
      <path
         d="m 121.43336,21.085564 -0.66945,-0.618212 0.64042,-0.597718 h 0.17931 l -0.68652,0.640412 0.007,-0.09051 0.71214,0.666029 z m -0.76679,0 v -1.21593 h 0.14004 v 1.21593 z"
         style="letter-spacing:0.51226902px;fill:#000018;fill-opacity:1;stroke-width:0.04269415"
         id="path4884" />
    </g>
    <g
       aria-label="SOLUTIONS"
       style="font-style:normal;font-variant:normal;font-weight:normal;font-stretch:normal;font-size:1.70776606px;line-height:1.25;font-family:muli;-inkscape-font-specification:muli;letter-spacing:0.51226902px;word-spacing:0px;fill:#000018;fill-opacity:1;stroke:none;stroke-width:0.04269415"
       id="text4787-9">
      <path
         d="m 110.98588,23.315201 q -0.0939,0 -0.1759,-0.01537 -0.082,-0.01708 -0.15199,-0.05123 -0.07,-0.03586 -0.12638,-0.0871 l 0.0529,-0.10759 q 0.0922,0.07685 0.18444,0.109297 0.0939,0.03245 0.21859,0.03245 0.14516,0 0.22543,-0.05636 0.0803,-0.05806 0.0803,-0.162238 0,-0.06319 -0.041,-0.100758 -0.0393,-0.03928 -0.1093,-0.06148 -0.0683,-0.02391 -0.15541,-0.0444 -0.0871,-0.01879 -0.16565,-0.04269 -0.0786,-0.02562 -0.14004,-0.06319 -0.0598,-0.03757 -0.0939,-0.09564 -0.0342,-0.05806 -0.0342,-0.14516 0,-0.104174 0.0546,-0.182731 0.0547,-0.08026 0.1537,-0.124667 0.0991,-0.0444 0.23396,-0.0444 0.0837,0 0.16053,0.01878 0.0769,0.01708 0.14175,0.05123 0.0666,0.03416 0.11783,0.08368 l -0.0546,0.107589 q -0.0837,-0.07343 -0.17249,-0.107589 -0.0888,-0.03416 -0.19298,-0.03416 -0.14174,0 -0.22201,0.05977 -0.0803,0.05977 -0.0803,0.167361 0,0.0666 0.0359,0.10759 0.0359,0.04099 0.10076,0.0666 0.0649,0.02391 0.14858,0.0444 0.0888,0.02049 0.17077,0.0444 0.082,0.02391 0.14516,0.05977 0.0649,0.03416 0.10247,0.09051 0.0376,0.05465 0.0376,0.140037 0,0.104173 -0.0546,0.181023 -0.0546,0.07685 -0.15541,0.119543 -0.10075,0.04269 -0.23908,0.04269 z"
         style="letter-spacing:0.51226902px;fill:#000018;fill-opacity:1;stroke-width:0.04269415"
         id="path4853" />
      <path
         d="m 112.68512,23.315201 q -0.17077,0 -0.29544,-0.07514 -0.12296,-0.07514 -0.19127,-0.215179 -0.0666,-0.140036 -0.0666,-0.331306 0,-0.192978 0.0666,-0.331307 0.0666,-0.140037 0.18956,-0.215178 0.12467,-0.07514 0.29715,-0.07514 0.17078,0 0.29545,0.07514 0.12466,0.07514 0.19127,0.215178 0.0666,0.138329 0.0666,0.329599 0,0.192978 -0.0683,0.333014 -0.0666,0.140037 -0.19127,0.215179 -0.12296,0.07514 -0.29374,0.07514 z m 0,-0.119544 q 0.19298,0 0.30057,-0.12979 0.10759,-0.131498 0.10759,-0.374001 0,-0.242503 -0.10759,-0.370585 -0.10759,-0.12979 -0.30057,-0.12979 -0.19297,0 -0.30227,0.12979 -0.10759,0.12979 -0.10759,0.370585 0,0.240795 0.10759,0.372293 0.1093,0.131498 0.30227,0.131498 z"
         style="letter-spacing:0.51226902px;fill:#000018;fill-opacity:1;stroke-width:0.04269415"
         id="path4855" />
      <path
         d="m 114.00599,23.301538 v -1.215929 h 0.14004 v 1.096386 h 0.60967 v 0.119543 z"
         style="letter-spacing:0.51226902px;fill:#000018;fill-opacity:1;stroke-width:0.04269415"
         id="path4857" />
      <path
         d="m 115.87692,23.315201 q -0.23738,0 -0.36034,-0.12296 -0.12295,-0.124666 -0.12295,-0.367169 v -0.739463 h 0.13832 v 0.751417 q 0,0.179316 0.0871,0.269827 0.0871,0.0888 0.25787,0.0888 0.16736,0 0.25446,-0.09051 0.0871,-0.09051 0.0871,-0.268119 v -0.751417 h 0.14003 v 0.739463 q 0,0.240795 -0.12296,0.365462 -0.12296,0.124667 -0.35863,0.124667 z"
         style="letter-spacing:0.51226902px;fill:#000018;fill-opacity:1;stroke-width:0.04269415"
         id="path4859" />
      <path
         d="m 117.45564,23.301538 v -1.096385 h -0.42353 v -0.119544 h 0.9888 v 0.119544 h -0.42353 v 1.096385 z"
         style="letter-spacing:0.51226902px;fill:#000018;fill-opacity:1;stroke-width:0.04269415"
         id="path4861" />
      <path
         d="m 118.70484,23.301538 v -1.215929 h 0.14003 v 1.215929 z"
         style="letter-spacing:0.51226902px;fill:#000018;fill-opacity:1;stroke-width:0.04269415"
         id="path4863" />
      <path
         d="m 120.1663,23.315201 q -0.17077,0 -0.29544,-0.07514 -0.12296,-0.07514 -0.19127,-0.215179 -0.0666,-0.140036 -0.0666,-0.331306 0,-0.192978 0.0666,-0.331307 0.0666,-0.140037 0.18956,-0.215178 0.12467,-0.07514 0.29715,-0.07514 0.17078,0 0.29545,0.07514 0.12466,0.07514 0.19127,0.215178 0.0666,0.138329 0.0666,0.329599 0,0.192978 -0.0683,0.333014 -0.0666,0.140037 -0.19127,0.215179 -0.12296,0.07514 -0.29374,0.07514 z m 0,-0.119544 q 0.19298,0 0.30057,-0.12979 0.10759,-0.131498 0.10759,-0.374001 0,-0.242503 -0.10759,-0.370585 -0.10759,-0.12979 -0.30057,-0.12979 -0.19297,0 -0.30227,0.12979 -0.10759,0.12979 -0.10759,0.370585 0,0.240795 0.10759,0.372293 0.1093,0.131498 0.30227,0.131498 z"
         style="letter-spacing:0.51226902px;fill:#000018;fill-opacity:1;stroke-width:0.04269415"
         id="path4865" />
      <path
         d="m 121.48717,23.301538 v -1.215929 h 0.10759 l 0.77533,1.033198 -0.041,0.01025 v -1.043445 h 0.13321 v 1.215929 h -0.1093 l -0.77362,-1.03149 0.0393,-0.01196 v 1.043445 z"
         style="letter-spacing:0.51226902px;fill:#000018;fill-opacity:1;stroke-width:0.04269415"
         id="path4867" />
      <path
         d="m 123.65955,23.315201 q -0.0939,0 -0.1759,-0.01537 -0.082,-0.01708 -0.15199,-0.05123 -0.07,-0.03586 -0.12638,-0.0871 l 0.0529,-0.10759 q 0.0922,0.07685 0.18444,0.109297 0.0939,0.03245 0.2186,0.03245 0.14516,0 0.22542,-0.05636 0.0803,-0.05806 0.0803,-0.162238 0,-0.06319 -0.041,-0.100758 -0.0393,-0.03928 -0.1093,-0.06148 -0.0683,-0.02391 -0.1554,-0.0444 -0.0871,-0.01879 -0.16566,-0.04269 -0.0785,-0.02562 -0.14003,-0.06319 -0.0598,-0.03757 -0.0939,-0.09564 -0.0342,-0.05806 -0.0342,-0.14516 0,-0.104174 0.0546,-0.182731 0.0547,-0.08026 0.1537,-0.124667 0.0991,-0.0444 0.23397,-0.0444 0.0837,0 0.16053,0.01878 0.0768,0.01708 0.14174,0.05123 0.0666,0.03416 0.11784,0.08368 l -0.0547,0.107589 q -0.0837,-0.07343 -0.17249,-0.107589 -0.0888,-0.03416 -0.19297,-0.03416 -0.14175,0 -0.22201,0.05977 -0.0803,0.05977 -0.0803,0.167361 0,0.0666 0.0359,0.10759 0.0359,0.04099 0.10076,0.0666 0.0649,0.02391 0.14858,0.0444 0.0888,0.02049 0.17078,0.0444 0.082,0.02391 0.14516,0.05977 0.0649,0.03416 0.10246,0.09051 0.0376,0.05465 0.0376,0.140037 0,0.104173 -0.0546,0.181023 -0.0546,0.07685 -0.1554,0.119543 -0.10076,0.04269 -0.23909,0.04269 z"
         style="letter-spacing:0.51226902px;fill:#000018;fill-opacity:1;stroke-width:0.04269415"
         id="path4869" />
    </g>
  </g>
</svg>
